<?xml version="1.0" encoding="utf-8"?>
<!-- Generator: Adobe Illustrator 22.0.0, SVG Export Plug-In . SVG Version: 6.00 Build 0)  -->
<svg version="1.1" id="Слой_1" xmlns="http://www.w3.org/2000/svg" xmlns:xlink="http://www.w3.org/1999/xlink" x="0px" y="0px"
	 viewBox="0 0 113.2 98.8" style="enable-background:new 0 0 113.2 98.8;" xml:space="preserve">
<style type="text/css">
	.st0{fill:#098FD1;}
	.st1{fill:#575A5B;}
</style>
<path class="st0" d="M91,58.4H68L60.3,45l-3.5-6.1l-4,6.9l-7.3,12.6H23.6c1.8-3.2,13.4-23.2,22.5-38.9c2.5-4.4,4.9-8.4,6.7-11.7
	c1.1-1.9,2-3.5,2.8-4.8c1.1-1.9,1.7-3,1.7-3l1.7,3l1.3,2.2L91,58.4z"/>
<path class="st0" d="M113.2,98.8H60.3V81.6h19.9l-9.1-15.7h23c1.3,2.2,6.7,11.7,11.5,19.9C109.7,92.7,113.2,98.8,113.2,98.8z"/>
<path class="st1" d="M52.8,81.6v17.2H0c0,0,3.5-6.1,7.5-13.1c4.8-8.2,10.2-17.7,11.5-19.9H41l-9.1,15.7H52.8z"/>
</svg>
